<svg width="48" height="49" viewBox="0 0 48 49" fill="none" xmlns="http://www.w3.org/2000/svg">
<path fill-rule="evenodd" clip-rule="evenodd" d="M15.8333 0.0989333C11.1057 0.641474 6.85752 2.99769 3.93299 6.69919C-0.352318 12.123 -1.20657 19.488 1.71928 25.7854C4.38112 31.5146 9.59671 35.2736 15.8531 35.9718C20.3158 36.4699 25.0732 35.0555 28.5482 32.1975C28.9962 31.829 29.4194 31.4848 29.4886 31.4324C29.5833 31.3608 29.8346 31.5623 30.5033 32.2459L31.3924 33.1545L31.1362 33.6809C30.9021 34.1623 30.8802 34.3013 30.8802 35.3078C30.8802 37.125 30.5322 36.6668 36.6734 42.9359C42.4357 48.8183 42.2878 48.691 43.6286 48.9254C46.0834 49.3547 48.3388 47.0169 47.9134 44.4842C47.6982 43.2036 47.7546 43.2714 42.0971 37.4808C36.4191 31.669 36.4628 31.707 35.1693 31.4614C34.456 31.326 33.6531 31.4521 32.9459 31.8107L32.474 32.05L31.596 31.1551L30.718 30.2602L31.2829 29.5735C33.2904 27.1327 34.6248 24.1345 35.1624 20.8567C35.4128 19.3303 35.4307 16.7793 35.2011 15.3537C34.2371 9.3673 30.7864 4.56224 25.5209 1.87413C22.6204 0.393316 19.0187 -0.266653 15.8333 0.0989333ZM20.4516 1.75938C25.6759 2.74445 29.9814 6.0888 32.2321 10.9098C34.6565 16.1032 34.2771 22.193 31.2307 26.9817C27.2096 33.3028 19.512 36.0592 12.5278 33.6787C7.28221 31.8908 3.30318 27.4954 1.96359 22.0089C1.60537 20.542 1.53637 19.8752 1.54218 17.9377C1.54724 16.2455 1.57678 15.8843 1.7969 14.8218C2.6954 10.4847 5.06006 6.81308 8.49543 4.42098C10.7948 2.81996 12.8203 2.06066 16.0677 1.58243C16.6895 1.49084 19.6641 1.61095 20.4516 1.75938ZM36.2241 12.5303L35.6665 13.1056L35.9143 13.3585L36.1621 13.6114L36.5211 13.3197C36.7187 13.1593 36.9836 12.9148 37.1101 12.7764L37.3399 12.5249L37.0608 12.24L36.7817 11.9551L36.2241 12.5303ZM37.7037 14.2458L37.1209 14.7057L37.4969 15.2211C37.7038 15.5046 37.9075 15.749 37.9498 15.7641C38.0226 15.7902 39.1771 15.1279 39.1771 15.06C39.1771 15.0199 38.3248 13.7725 38.3027 13.7802C38.2938 13.7832 38.0242 13.9927 37.7037 14.2458ZM39.2033 16.7947L38.6201 17.1321L38.9187 17.7502C39.083 18.0903 39.2557 18.3684 39.3027 18.3684C39.4572 18.3684 40.4896 17.8654 40.4896 17.79C40.4896 17.6377 39.9319 16.4544 39.8607 16.4557C39.8198 16.4566 39.5241 16.6091 39.2033 16.7947ZM40.3193 19.6318C39.8689 19.7783 39.7403 19.8591 39.782 19.97C39.8121 20.0502 39.8839 20.3147 39.9415 20.558C39.9992 20.8011 40.0797 21.038 40.1205 21.0841C40.2184 21.1949 41.4304 20.9601 41.4815 20.8205C41.5564 20.616 41.1955 19.4717 41.051 19.4552C40.9743 19.4464 40.645 19.5259 40.3193 19.6318ZM40.7961 22.5736C40.5778 22.6098 40.3729 22.6665 40.3406 22.6995C40.3084 22.7324 40.3124 23.0689 40.3496 23.4471L40.4173 24.135L41.1311 24.0689C41.5238 24.0327 41.8616 23.986 41.8819 23.9654C41.9021 23.9447 41.8888 23.6029 41.8523 23.2057L41.7861 22.4836L41.4894 22.4956C41.3262 22.5022 41.0142 22.5373 40.7961 22.5736ZM40.3958 25.8198C40.3958 25.9705 40.37 26.2862 40.3384 26.5215L40.2809 26.9494L41.0166 27.0548C41.4212 27.1127 41.7618 27.1505 41.7734 27.1386C41.7849 27.1267 41.8234 26.7635 41.8586 26.3315L41.9228 25.5461H41.1593H40.3958V25.8198ZM39.8901 29.0153C39.8029 29.3444 39.7227 29.6499 39.7121 29.6943C39.7014 29.7387 40.0013 29.875 40.3785 29.997C40.8886 30.1621 41.0755 30.189 41.1082 30.1018C41.2515 29.7206 41.5088 28.7558 41.476 28.7224C41.4341 28.6796 40.3221 28.4261 40.1519 28.4206C40.0952 28.4187 39.9773 28.6864 39.8901 29.0153ZM38.9322 31.7552L38.6405 32.4125L39.2821 32.7294C39.635 32.9037 39.9426 33.0269 39.9658 33.0033C39.989 32.9797 40.1381 32.6811 40.2972 32.3397L40.5864 31.719L39.9521 31.4144C39.6032 31.247 39.2966 31.1072 39.2708 31.1039C39.2451 31.1006 39.0926 31.3937 38.9322 31.7552ZM35.6615 33.1518C36.1748 33.3936 46.0182 43.425 46.2906 43.9841C46.8602 45.1527 46.4793 46.4923 45.392 47.1447C45.0071 47.3756 44.8418 47.4143 44.2396 47.4143C43.6442 47.4143 43.4719 47.3749 43.1146 47.1576C42.4969 46.7817 32.7787 36.8017 32.5252 36.2828C32.2775 35.7757 32.2532 34.9237 32.4712 34.39C32.727 33.7639 33.3194 33.2322 34.0203 32.9997C34.3878 32.8776 35.2488 32.9575 35.6615 33.1518ZM12.279 36.9512L11.7716 37.5213L12.0217 37.7768L12.272 38.0321L12.8091 37.4838L13.3461 36.9355L13.0663 36.6583L12.7865 36.3811L12.279 36.9512ZM13.9324 38.5183L13.4845 39.1368L14.0641 39.5191C14.3828 39.7295 14.678 39.9016 14.72 39.9016C14.7924 39.9016 15.4377 38.9319 15.5111 38.7128C15.5447 38.6126 14.6088 37.8878 14.4561 37.8957C14.4143 37.8979 14.1786 38.1781 13.9324 38.5183ZM31.0677 39.7262C30.7583 39.8879 30.4942 40.0299 30.4807 40.0417C30.4672 40.0536 30.5886 40.3692 30.7504 40.7432L31.0446 41.4231L31.7123 41.0818C32.0796 40.894 32.3928 40.729 32.4082 40.7151C32.4706 40.6587 31.8172 39.4234 31.7272 39.4277C31.6739 39.4302 31.3771 39.5645 31.0677 39.7262ZM16.7916 39.6453C16.745 39.7073 16.5737 39.9999 16.411 40.2955L16.1151 40.8331L16.8201 41.1468C17.2078 41.3193 17.5394 41.4435 17.557 41.4228C17.6672 41.2928 18.1012 40.175 18.0584 40.1314C18.0297 40.1021 17.7519 39.9553 17.4412 39.8053C17.0229 39.6033 16.8544 39.5618 16.7916 39.6453ZM19.1119 41.2506C19.0029 41.624 18.9274 41.9394 18.9439 41.9513C19.0073 41.9969 20.3655 42.3886 20.3816 42.3659C20.3909 42.3527 20.4606 42.0158 20.5365 41.6171L20.6745 40.8921L20.0586 40.731C19.7198 40.6424 19.4129 40.5703 19.3763 40.5707C19.3399 40.5711 19.2209 40.8771 19.1119 41.2506ZM28.416 40.7612C28.0919 40.8535 27.8102 40.946 27.7899 40.9667C27.7484 41.0091 28.0033 42.3081 28.0656 42.3718C28.1231 42.4304 29.4201 42.0961 29.4727 42.009C29.5188 41.9331 29.1642 40.7601 29.0632 40.6542C29.0314 40.6207 28.7401 40.6688 28.416 40.7612ZM22.0876 41.3499C22.0585 41.4745 22.0061 41.8199 21.9712 42.1176L21.9077 42.6588L22.6248 42.7274C23.0191 42.7651 23.3708 42.7663 23.4064 42.73C23.4419 42.6937 23.4868 42.344 23.5061 41.9528L23.5414 41.2414H23.2629C23.1098 41.2414 22.7946 41.2148 22.5624 41.1824C22.174 41.128 22.1362 41.1413 22.0876 41.3499ZM25.2786 41.2154C24.8844 41.2575 24.8735 41.2981 24.9892 42.2821L25.0497 42.7964L25.7599 42.7308C26.1504 42.6946 26.4851 42.6497 26.5035 42.6308C26.5219 42.6121 26.4853 42.2702 26.4223 41.8712L26.3077 41.1457L25.9689 41.1618C25.7826 41.1707 25.4721 41.1948 25.2786 41.2154Z" fill="black"/>
</svg>
